PathFileType	4	(X/Y/Z)	/Users/itak/Documents/Research/Walk-IL/dataset/trc/00301_00010.trc
DataRate	CameraRate	NumFrames	NumMarkers	Units	OrigDataRate	OrigDataStartFrame	OrigNumFrames
100.000000	100.000000	4	56	mm	100.000000	98	394
Frame#	Time	RPSI			LPSI			L3			STRN			T10			C7			CLAV			RBAK			LBAK			LSHO			LUPA			LAEL			LAOL			LWTS			LWPS			LFRA			LIFD			LHPS			LHTS			RSHO			RUPA			RAEL			RAOL			RWTS			RWPS			RFRA			RIFD			RHTS			RHPS			RBHD			LFHD			RFHD			LBHD			LHIP			RASI			LASI			LKNE			LTHI			LANK			LTIP			LTOE			LMT1			LMT5			LHEE			RKNE			RTHI			RTIP			RTOE			RMT1			RMT5			RHIP			RANK			RHEE			*53			*54			*55			
		X1	Y1	Z1	X2	Y2	Z2	X3	Y3	Z3	X4	Y4	Z4	X5	Y5	Z5	X6	Y6	Z6	X7	Y7	Z7	X8	Y8	Z8	X9	Y9	Z9	X10	Y10	Z10	X11	Y11	Z11	X12	Y12	Z12	X13	Y13	Z13	X14	Y14	Z14	X15	Y15	Z15	X16	Y16	Z16	X17	Y17	Z17	X18	Y18	Z18	X19	Y19	Z19	X20	Y20	Z20	X21	Y21	Z21	X22	Y22	Z22	X23	Y23	Z23	X24	Y24	Z24	X25	Y25	Z25	X26	Y26	Z26	X27	Y27	Z27	X28	Y28	Z28	X29	Y29	Z29	X30	Y30	Z30	X31	Y31	Z31	X32	Y32	Z32	X33	Y33	Z33	X34	Y34	Z34	X35	Y35	Z35	X36	Y36	Z36	X37	Y37	Z37	X38	Y38	Z38	X39	Y39	Z39	X40	Y40	Z40	X41	Y41	Z41	X42	Y42	Z42	X43	Y43	Z43	X44	Y44	Z44	X45	Y45	Z45	X46	Y46	Z46	X47	Y47	Z47	X48	Y48	Z48	X49	Y49	Z49	X50	Y50	Z50	X51	Y51	Z51	X52	Y52	Z52	X53	Y53	Z53	X54	Y54	Z54	X55	Y55	Z55	X56	Y56	Z56	

99	0.98	-493.7020874023438	1004.475402832031	876.4281005859375	-557.498046875	978.7197265625	714.0348510742188	-510.4046630859375	1065.8271484375	779.6168212890625	-264.1907348632812	1237.135375976562	686.1787719726562	-518.3681030273438	1185.649658203125	780.7232055664062	-472.3737182617188	1427.995483398438	750.2314453125	-321.4221496582031	1341.214599609375	703.1483154296875	-500.3211364746094	1292.7177734375	842.3663940429688	-521.9451293945312	1394.06103515625	654.3282470703125	-451.1239318847656	1399.578735351562	575.8527221679688	-506.7506713867188	1285.68115234375	511.9663696289062	-516.0418090820312	1080.74072265625	498.5311584472656	-554.9848022460938	1070.2275390625	575.7633666992188	-436.400146484375	854.0338745117188	526.734375	-487.1279907226562	843.9953002929688	475.5515441894531	-510.24462890625	976.145263671875	487.528564453125	-444.4216613769531	670.0850219726562	526.8079223632812	-487.2377014160156	755.0438232421875	478.0266418457031	-424.5562744140625	754.6659545898438	502.519287109375	-354.2627258300781	1403.5810546875	876.8705444335938	-341.1440734863281	1350.722412109375	945.7684936523438	-354.2697448730469	1090.339477539062	1019.721496582031	-409.8236083984375	1077.53271484375	940.6964111328125	-271.4729614257812	861.374267578125	960.9603881835938	-300.0342407226562	860.2659301757812	1041.492797851562	-330.3218994140625	1021.7568359375	1030.243530273438	-262.6533813476562	676.1278076171875	969.474853515625	-237.1532135009766	747.1539916992188	980.0977172851562	-276.5033569335938	749.1779174804688	1039.161987304688	-409.0209655761719	1582.359008789062	814.2591552734375	-329.6182556152344	1616.574584960938	619.4296264648438	-280.6007385253906	1618.476440429688	698.31640625	-485.8248901367188	1568.643920898438	688.4541625976562	-525.7709350585938	921.9251098632812	604.296875	-275.3212890625	956.4279174804688	825.98193359375	-380.7008666992188	936.0601196289062	598.0342407226562	-399.6343688964844	465.6179809570312	589.6428833007812	-430.00341796875	602.2825927734375	583.4799194335938	-727.605712890625	214.5025939941406	732.919189453125	-563.5327758789062	327.1761779785156	653.1009521484375	-634.0235595703125	38.64250946044922	802.0734252929688	-663.2891235351562	102.6559982299805	838.5933227539062	-689.753662109375	97.11018371582031	730.6555786132812	-731.5076293945312	261.9220581054688	789.9839477539062	-269.3588562011719	495.9509887695312	875.6439819335938	-278.3699645996094	757.9945678710938	910.7576293945312	-257.5004577636719	370.2514953613281	863.0068969726562	-201.6910552978516	48.58553695678711	733.804931640625	-270.1892395019531	46.98735046386719	740.8318481445312	-222.9031677246094	34.95694351196289	849.0126342773438	-360.3822326660156	964.6659545898438	937.2633056640625	-314.6626892089844	43.20881652832031	900.5664672851562	-386.3862915039062	43.03050231933594	895.4332885742188	nan	nan	nan	nan	nan	nan	nan	nan	nan	
100	0.99	-485.604248046875	1004.943359375	874.7175903320312	-550.683837890625	979.0725708007812	712.8435668945312	-502.715087890625	1066.31201171875	778.665771484375	-257.6937866210938	1237.189819335938	681.4235229492188	-510.3018188476562	1186.689086914062	780.25732421875	-463.828369140625	1428.913818359375	748.8463134765625	-314.329833984375	1341.245239257812	699.3043823242188	-490.9447937011719	1293.851806640625	841.6228637695312	-515.1962280273438	1395.050659179688	653.8546752929688	-445.6678161621094	1400.216796875	573.9602661132812	-503.7907104492188	1286.522216796875	511.6270446777344	-515.304443359375	1081.794067382812	498.9831237792969	-552.1058349609375	1071.663696289062	577.1853637695312	-437.6858825683594	854.1589965820312	525.6265869140625	-489.6553955078125	844.7706298828125	475.6686096191406	-510.9269409179688	977.085205078125	487.9017639160156	-448.035400390625	670.280029296875	525.456787109375	-490.8148193359375	755.837158203125	478.0278015136719	-427.5937805175781	754.67822265625	500.9671325683594	-343.7120056152344	1403.84814453125	873.6193237304688	-329.356201171875	1350.723510742188	942.2671508789062	-338.3663940429688	1089.806274414062	1016.05712890625	-396.217041015625	1076.787719726562	938.6831665039062	-254.8580932617188	862.0636596679688	953.989501953125	-281.4805908203125	860.1363525390625	1035.1396484375	-313.7449340820312	1021.310974121094	1025.64501953125	-243.5341033935547	676.9111328125	961.365478515625	-218.6958465576172	748.1384887695312	971.7530517578125	-256.6378173828125	749.4025268554688	1031.675048828125	-399.181884765625	1582.898681640625	811.91259765625	-321.9445190429688	1617.116821289062	616.2149658203125	-271.9525451660156	1618.693969726562	694.5408935546875	-477.4821166992188	1569.72021484375	686.9871215820312	-519.6823120117188	922.7374877929688	602.634765625	-267.4509887695312	956.9412231445312	822.76806640625	-374.7232666015625	936.9912719726562	595.6395263671875	-382.4662170410156	468.6737670898438	583.087890625	-417.0298767089844	604.5127563476562	578.6155395507812	-708.1290893554688	216.6424713134766	730.9471435546875	-544.7431030273438	330.0467529296875	648.2905883789062	-609.3351440429688	41.12240982055664	794.0396118164062	-639.2254028320312	103.7417984008789	832.5943603515625	-667.6288452148438	100.806526184082	725.0518798828125	-711.92041015625	262.7890625	788.873779296875	-265.6916198730469	495.3232421875	873.9739990234375	-271.2969360351562	757.8530883789062	907.6024780273438	-255.1371002197266	369.5443725585938	861.6129760742188	-201.6688385009766	47.99629974365234	733.4339599609375	-270.2533569335938	46.51111602783203	740.446044921875	-223.0146484375	35.16902542114258	848.7669067382812	-351.7386169433594	964.9043579101562	934.4324340820312	-314.8833312988281	43.49555969238281	900.1434936523438	-386.6006469726562	43.27604675292969	895.0120239257812	nan	nan	nan	nan	nan	nan	nan	nan	nan	
101	1	-477.5350646972656	1005.336120605469	872.9319458007812	-543.9000854492188	979.498291015625	711.6103515625	-495.0976867675781	1066.837158203125	777.6690673828125	-251.3230590820312	1237.333374023438	676.6115112304688	-502.3529052734375	1187.732421875	779.7262573242188	-455.4111328125	1429.798461914062	747.3535766601562	-307.3655700683594	1341.362670898438	695.41455078125	-481.6821899414062	1294.981079101562	840.7736206054688	-508.5844421386719	1396.023559570312	653.3561401367188	-440.416259765625	1400.85986328125	572.0531005859375	-500.9384460449219	1287.422973632812	511.3009643554688	-514.6988525390625	1082.906494140625	499.5018920898438	-549.2357788085938	1073.159301757812	578.679931640625	-438.8580322265625	854.4854125976562	524.3986206054688	-492.178466796875	845.6416625976562	475.8970642089844	-511.6852416992188	978.0962524414062	488.383544921875	-451.0492858886719	670.7066650390625	524.1527099609375	-494.1774291992188	756.7332763671875	478.2414245605469	-430.3710327148438	754.9447021484375	499.302001953125	-333.3480529785156	1404.120483398438	870.2367553710938	-317.7470703125	1350.71728515625	938.5947265625	-322.2550659179688	1089.274658203125	1011.972290039062	-382.3921813964844	1075.994262695312	936.3751220703125	-238.3137969970703	862.6543579101562	946.6520385742188	-262.7838745117188	860.106201171875	1028.418579101562	-296.9364013671875	1020.915832519531	1020.586608886719	-224.7935028076172	677.6072998046875	953.1433715820312	-200.5083465576172	749.0045166015625	963.0829467773438	-236.8059539794922	749.7155151367188	1023.944396972656	-389.3814392089844	1583.458740234375	809.4173583984375	-314.3662414550781	1617.560668945312	612.8477783203125	-263.4038391113281	1618.802612304688	690.5739135742188	-469.2315063476562	1570.825439453125	685.4342041015625	-513.6685180664062	923.701904296875	600.8630981445312	-259.5984802246094	957.4956665039062	819.4666137695312	-368.7884521484375	938.0350341796875	593.1841430664062	-365.4602661132812	472.0059814453125	576.5513916015625	-404.0722045898438	607.0233154296875	573.5772094726562	-688.0050659179688	217.3995971679688	728.6805419921875	-525.7454223632812	332.3114929199219	643.3046875	-582.88232421875	43.5239372253418	785.5492553710938	-613.9736328125	103.9545669555664	826.152099609375	-643.969970703125	103.5645751953125	718.9617919921875	-692.0867309570312	262.1505432128906	787.4871215820312	-262.0700378417969	494.6555480957031	872.2216796875	-264.3221130371094	757.5912475585938	904.3849487304688	-252.7836151123047	368.8205871582031	860.0873413085938	-201.6095428466797	47.44712829589844	733.0747680664062	-270.3130798339844	46.05858612060547	740.0496826171875	-223.1613616943359	35.39045715332031	848.4742431640625	-342.8346862792969	964.9883422851562	931.4030151367188	-315.0984802246094	43.8427734375	899.7099609375	-386.8059387207031	43.49824523925781	894.550537109375	nan	nan	nan	nan	nan	nan	nan	nan	nan	
102	1.01	-469.4782104492188	1005.671875	871.0725708007812	-537.1478271484375	979.9718017578125	710.345458984375	-487.5369873046875	1067.403930664062	776.6152954101562	-245.0516662597656	1237.57763671875	671.7608032226562	-494.49365234375	1188.75732421875	779.1259765625	-447.1317443847656	1430.6416015625	745.7609252929688	-300.5080261230469	1341.58447265625	691.4946899414062	-472.5156860351562	1296.078491210938	839.8219604492188	-502.0938110351562	1396.964721679688	652.8419189453125	-435.3554992675781	1401.520385742188	570.1580810546875	-498.1392517089844	1288.403564453125	510.9744262695312	-514.1582641601562	1084.094970703125	500.0604858398438	-546.3745727539062	1074.736206054688	580.1954956054688	-439.8813171386719	855.0112915039062	523.0782470703125	-494.6198425292969	846.6079711914062	476.2120971679688	-512.4500122070312	979.1943969726562	488.9475402832031	-453.5248107910156	671.33642578125	522.9646606445312	-497.28564453125	757.7320556640625	478.6556701660156	-432.8863525390625	755.4307250976562	497.6021118164062	-323.1760864257812	1404.40869140625	866.7350463867188	-306.3312072753906	1350.724975585938	934.763427734375	-306.0192260742188	1088.783447265625	1007.453369140625	-368.3780212402344	1075.18701171875	933.72705078125	-221.8443450927734	863.1904296875	938.9307861328125	-243.9757843017578	860.2113647460938	1021.30078125	-279.9478149414062	1020.615417480469	1015.0478515625	-206.4215850830078	678.2431030273438	944.7921752929688	-182.585205078125	749.8014526367188	954.0745239257812	-217.0238800048828	750.1456909179688	1015.940734863281	-379.639892578125	1584.037841796875	806.778076171875	-306.8917846679688	1617.891479492188	609.3302612304688	-254.971435546875	1618.791625976562	686.422607421875	-461.0882263183594	1571.947265625	683.7915649414062	-507.7357482910156	924.767822265625	599.02392578125	-251.7550048828125	958.0728149414062	816.0718994140625	-362.8957214355469	939.1738891601562	590.6660766601562	-348.6926879882812	475.5631103515625	570.0413208007812	-391.1798706054688	609.7809448242188	568.3758544921875	-667.2679443359375	216.7533569335938	725.9833374023438	-506.5693054199219	333.8496398925781	638.120361328125	-554.9915161132812	45.64918899536133	776.644775390625	-587.6602172851562	103.4104766845703	819.2654418945312	-619.0933837890625	105.3012008666992	712.4209594726562	-671.960693359375	260.0252075195312	785.6928100585938	-258.4920043945312	493.9588623046875	870.4146118164062	-257.4523010253906	757.2081909179688	901.1189575195312	-250.4661865234375	368.0823974609375	858.4642333984375	-201.5171203613281	46.94045257568359	732.7275390625	-270.3584289550781	45.63357925415039	739.6480712890625	-223.3441619873047	35.61068725585938	848.1317749023438	-333.7265014648438	964.93115234375	928.1846923828125	-315.2940673828125	44.23694610595703	899.277099609375	-386.9952697753906	43.67888641357422	894.0729370117188	nan	nan	nan	nan	nan	nan	nan	nan	nan	
